<svg width="4508" height="1188" viewBox="0 0 4508 1188" fill="none" xmlns="http://www.w3.org/2000/svg">
<path d="M1639.34 747.655C1639.34 788.118 1625.22 818.935 1596.99 840.107C1569 861.28 1527.01 871.866 1471.02 871.866C1442.32 871.866 1417.85 869.866 1397.62 865.867C1377.39 862.103 1358.45 856.457 1340.81 848.929V760.006C1360.8 769.415 1383.27 777.296 1408.21 783.648C1433.38 790 1455.49 793.175 1474.55 793.175C1513.6 793.175 1533.12 781.884 1533.12 759.3C1533.12 750.831 1530.54 744.009 1525.36 738.833C1520.18 733.423 1511.24 727.424 1498.54 720.837C1485.84 714.015 1468.9 706.134 1447.73 697.194C1417.38 684.491 1395.03 672.729 1380.68 661.907C1366.57 651.086 1356.22 638.735 1349.63 624.856C1343.28 610.741 1340.1 593.45 1340.1 572.984C1340.1 537.932 1353.63 510.878 1380.68 491.823C1407.97 472.533 1446.55 462.888 1496.42 462.888C1543.94 462.888 1590.17 473.239 1635.1 493.94L1602.64 571.572C1582.88 563.103 1564.41 556.163 1547.24 550.753C1530.06 545.342 1512.54 542.637 1494.66 542.637C1462.9 542.637 1447.02 551.223 1447.02 568.396C1447.02 578.041 1452.08 586.393 1462.2 593.45C1472.55 600.508 1495.01 610.976 1529.59 624.856C1560.41 637.324 1583 648.969 1597.35 659.79C1611.7 670.611 1622.28 683.08 1629.1 697.194C1635.93 711.309 1639.34 728.129 1639.34 747.655Z" fill="#004C25"/>
<path d="M1890.23 786.118C1909.05 786.118 1931.63 782.001 1957.98 773.767V853.869C1931.16 865.867 1898.23 871.866 1859.18 871.866C1816.13 871.866 1784.72 861.044 1764.96 839.401C1745.43 817.523 1735.67 784.824 1735.67 741.303V551.105H1684.15V505.585L1743.43 469.592L1774.49 386.314H1843.3V470.298H1953.75V551.105H1843.3V741.303C1843.3 756.594 1847.53 767.886 1856 775.179C1864.7 782.472 1876.11 786.118 1890.23 786.118Z" fill="#004C25"/>
<path d="M2123.12 666.847C2123.12 705.899 2129.48 735.422 2142.18 755.418C2155.12 775.414 2176.05 785.412 2204.99 785.412C2233.69 785.412 2254.27 775.532 2266.74 755.771C2279.45 735.775 2285.8 706.134 2285.8 666.847C2285.8 627.796 2279.45 598.508 2266.74 578.982C2254.04 559.457 2233.22 549.694 2204.28 549.694C2175.58 549.694 2154.88 559.457 2142.18 578.982C2129.48 598.273 2123.12 627.561 2123.12 666.847ZM2395.89 666.847C2395.89 731.07 2378.96 781.295 2345.08 817.524C2311.2 853.752 2264.04 871.866 2203.58 871.866C2165.7 871.866 2132.3 863.632 2103.36 847.165C2074.43 830.462 2052.2 806.585 2036.67 775.532C2021.14 744.479 2013.38 708.251 2013.38 666.847C2013.38 602.39 2030.2 552.282 2063.84 516.524C2097.48 480.767 2144.77 462.888 2205.7 462.888C2243.57 462.888 2276.98 471.121 2305.91 487.589C2334.85 504.056 2357.08 527.698 2372.6 558.516C2388.13 589.333 2395.89 625.444 2395.89 666.847Z" fill="#004C25"/>
<path d="M2645.02 871.866C2522.22 871.866 2460.82 804.467 2460.82 669.67C2460.82 602.625 2477.52 551.458 2510.93 516.171C2544.33 480.649 2592.21 462.888 2654.55 462.888C2700.19 462.888 2741.12 471.827 2777.35 489.706L2745.59 572.984C2728.65 566.161 2712.89 560.633 2698.3 556.399C2683.72 551.929 2669.13 549.694 2654.55 549.694C2598.56 549.694 2570.56 589.451 2570.56 668.965C2570.56 746.126 2598.56 784.707 2654.55 784.707C2675.25 784.707 2694.42 782.001 2712.07 776.59C2729.71 770.945 2747.35 762.24 2765 750.478V842.577C2747.59 853.634 2729.95 861.28 2712.07 865.514C2694.42 869.749 2672.07 871.866 2645.02 871.866Z" fill="#004C25"/>
<path d="M2959.43 650.262L3006.36 590.274L3116.81 470.298H3238.2L3081.52 641.441L3247.73 864.808H3123.51L3009.89 704.957L2963.66 742.009V864.808H2856.04V315.74H2963.66V560.633L2958.02 650.262H2959.43Z" fill="#004C25"/>
<path d="M3398.75 864.808L3248.43 470.298H3361L3437.22 695.077C3444.98 719.543 3450.04 746.479 3452.39 775.885H3455.21C3456.63 749.302 3461.92 722.366 3471.09 695.077L3546.96 470.298H3659.53L3509.2 864.808H3398.75Z" fill="#004C25"/>
<path d="M3879.01 539.461C3856.19 539.461 3838.31 546.753 3825.38 561.339C3812.44 575.689 3805.03 596.156 3803.15 622.738H3954.17C3953.7 596.156 3946.76 575.689 3933.35 561.339C3919.95 546.753 3901.83 539.461 3879.01 539.461ZM3894.19 871.866C3830.67 871.866 3781.03 854.34 3745.27 819.288C3709.52 784.236 3691.64 734.599 3691.64 670.376C3691.64 604.272 3708.11 553.223 3741.04 517.23C3774.21 481.002 3819.97 462.888 3878.31 462.888C3934.06 462.888 3977.46 478.767 4008.52 510.525C4039.57 542.284 4055.1 586.157 4055.1 642.146V694.371H3800.67C3801.85 724.954 3810.91 748.831 3827.85 766.004C3844.78 783.177 3868.54 791.764 3899.13 791.764C3922.89 791.764 3945.35 789.294 3966.52 784.354C3987.7 779.413 4009.81 771.533 4032.86 760.711V843.989C4014.04 853.399 3993.93 860.339 3972.52 864.808C3951.12 869.513 3925 871.866 3894.19 871.866Z" fill="#004C25"/>
<path d="M4507.48 864.808H4399.85V634.383C4399.85 605.918 4394.79 584.628 4384.68 570.514C4374.56 556.163 4358.45 548.988 4336.33 548.988C4306.22 548.988 4284.46 559.104 4271.05 579.335C4257.64 599.331 4250.94 632.619 4250.94 679.198V864.808H4143.31V470.298H4225.53L4240 520.759H4246C4258 501.704 4274.46 487.353 4295.4 477.708C4316.57 467.828 4340.57 462.888 4367.39 462.888C4413.26 462.888 4448.08 475.356 4471.84 500.292C4495.6 524.993 4507.48 560.751 4507.48 607.565V864.808Z" fill="#004C25"/>
<circle cx="594" cy="183" r="148.5" stroke="#004C25" stroke-width="69"/>
<circle cx="593.5" cy="287.5" r="253" stroke="#004C25" stroke-width="69"/>
<circle cx="594" cy="440" r="405.5" stroke="#004C25" stroke-width="69"/>
<circle cx="594" cy="594" r="559.5" stroke="#004C25" stroke-width="69"/>
</svg>
